PathFileType	4	(X/Y/Z)	Patient4_TMGait_0pt5_01_left_04.trc.trc
DataRate	CameraRate	NumFrames	NumMarkers	Units	OrigDataRate	OrigDataStartFrame	OrigNumFrames
73.684210526316	73.684210526316	4	33	mm	73.684210526316	89	       141
Frame#	Time	L.ASIS			Sacral			L.Shoulder			Chest			R.Shoulder			Neck			R.ASIS			R.Thigh.Superior			R.Thigh.Lateral			R.Thigh.Inferior			R.Patella			L.Thigh.Superior			L.Thigh.Lateral			L.Thigh.Inferior			L.Patella			L.Shank.Superior			L.Shank.Lateral			L.Shank.Inferior			R.Shank.Superior			R.Shank.Lateral			R.Shank.Inferior			R.Heel			R.Midfoot.Superior			R.Midfoot.Lateral			R.Toe			L.Heel			L.Midfoot.Lateral			L.Midfoot.Superior			L.Toe			L.Elbow			L.Wrist			R.Elbow			R.Wrist			
		X1	Y1	Z1	X2	Y2	Z2	X3	Y3	Z3	X4	Y4	Z4	X5	Y5	Z5	X6	Y6	Z6	X7	Y7	Z7	X8	Y8	Z8	X9	Y9	Z9	X10	Y10	Z10	X11	Y11	Z11	X12	Y12	Z12	X13	Y13	Z13	X14	Y14	Z14	X15	Y15	Z15	X16	Y16	Z16	X17	Y17	Z17	X18	Y18	Z18	X19	Y19	Z19	X20	Y20	Z20	X21	Y21	Z21	X22	Y22	Z22	X23	Y23	Z23	X24	Y24	Z24	X25	Y25	Z25	X26	Y26	Z26	X27	Y27	Z27	X28	Y28	Z28	X29	Y29	Z29	X30	Y30	Z30	X31	Y31	Z31	X32	Y32	Z32	X33	Y33	Z33	

89	6.414285714286	741.250383310106	955.871572520006	351.120121364749	520.908753550958	988.980858750748	499.974808289968	689.968181804718	1435.167221994088	347.623681304570	781.528424817640	1359.267100542846	512.931985775245	679.633350624482	1419.762639779016	683.873919170381	677.146449672221	1487.390748151456	501.606916626380	749.052471632913	934.209021447633	625.084945548808	820.199126356942	750.293996275712	591.970367390205	757.792240917103	632.006014726750	652.589129707233	842.041215848042	590.110975526550	572.158449707056	856.785066444210	499.452186632549	579.578358263699	769.613320273181	728.192744146085	380.756469217039	673.027995012063	618.841827001890	318.535180937677	745.188778010577	531.246622520478	385.182662729523	733.812760518007	448.903867343868	387.764507884175	673.576411308599	388.205738484656	379.062738469752	545.950367387290	322.971528103038	320.878123541178	541.739255173630	199.149343409511	387.021002390127	831.284741239584	408.142637663353	588.637375950992	764.293214516126	302.590882389517	651.982032286257	810.818953523471	208.827044220106	591.831839445103	681.700363166022	42.326890125986	562.442367667235	851.257154774676	98.618243456340	602.326089838011	763.369945788149	36.345976250315	639.445358277737	970.897056732630	47.919448055933	632.471554793650	361.049299256123	95.587076878600	414.338970827294	434.592644836309	67.996407019219	340.401057794341	529.664055955065	105.302907075766	368.998439179852	636.632627905667	34.574879387371	351.394916223730	663.928793999758	1089.225357110452	209.417714390751	857.535728045021	916.752657534060	236.430585495529	606.459983014296	1073.216567083710	774.150429070912	683.618515633083	824.148279496361	793.725294654580	
90	6.427857142857	741.046478692362	956.801386400687	353.588392475916	521.354059766636	989.713912083213	503.578990858568	688.808063367766	1436.105412602414	350.026968741841	781.555049810640	1360.386879843179	514.692197348001	680.766151485291	1420.807548717785	686.376629998411	676.815114005595	1488.242133741175	504.049670686757	750.369282868770	935.446807202797	627.416051070900	819.895570805088	749.806136100323	594.438745038902	756.284980873282	632.053003102577	654.641058110407	839.769361412786	589.469976759279	573.761340529634	853.525506559283	498.817207421786	580.651164294713	774.539901762385	730.633991378198	383.016202459910	681.940760407875	618.854594910458	320.427345932547	757.545676164110	532.695745735845	386.195532273465	747.333201795064	448.881986289884	387.475762398609	684.369215088778	388.633985262626	379.302171827696	553.640317893873	329.114732941374	322.002480467962	545.506726638019	204.786376704466	386.763841369453	827.521188934027	407.670220218744	589.557602316066	760.130053670958	302.379256581706	652.691279293768	805.646012087162	208.558041273553	592.139211562231	675.524223362086	42.341434345024	562.644595997321	845.003510469645	98.832386193156	602.477505182411	757.189037467909	36.411550831992	639.617658941474	964.679981571375	48.159796060676	632.671033248976	360.751323837722	111.089535786851	414.588485302697	431.976271043706	78.435971477884	340.643771793182	529.163384986711	109.542330374885	368.610966332852	630.039107357985	33.584560593622	351.581665009142	661.736160246873	1090.049328715187	212.465243027278	853.510252274110	915.173378400136	238.451258936419	614.937813635949	1073.017566252660	779.037475864657	701.139919909774	827.161331305188	799.553705732306	
91	6.441428571429	740.670210046108	957.643715408240	356.052292962430	521.612635321378	990.478704772190	507.222607979321	687.447894164292	1436.888049931726	352.187230428661	781.512531536481	1361.464481145806	516.182921118112	681.969800897139	1421.924866716668	688.621403870593	676.386594624159	1489.049021171640	506.219283013773	751.451945194720	936.601437924117	629.751086275937	819.239777772811	749.212977773816	597.059876119488	754.276588743221	631.990849255839	656.757539749462	837.115080532772	588.774041096593	575.535971298433	849.831833609754	498.132813617365	581.856147643163	779.402154563461	733.358086120533	385.206644330206	691.016342239385	619.265852145908	322.012196632998	770.017165085258	534.719954393567	386.926728624619	761.036363670162	449.527987075318	387.051590215784	695.659914149614	389.633041060633	379.375885092293	562.067832257690	335.804714027415	323.101978220664	550.122155072243	211.149416509329	386.617268045164	823.343382140898	407.156757123938	590.580015390345	755.529271095696	302.090618619363	653.414111009454	800.145383372464	208.246987953641	592.485976020004	669.125495670772	42.356724858496	562.795995658491	838.551386782248	98.933280259426	602.644097256496	750.762508204620	36.431732680318	639.767619362649	958.245697628048	48.189382080064	632.911020867737	361.708098819224	127.612969810885	415.144103702720	430.319014960495	90.025108248349	341.082543000394	529.448621009067	114.612139962027	368.411985468687	623.886911971543	32.765975238361	351.726043085304	659.249675759209	1090.667683958706	215.383112236913	849.168855637948	913.373342906934	240.129693681984	623.630380507242	1073.197465942529	784.035660219392	719.042909465340	830.941797671590	805.278595033570	
92	6.455000000000	740.122147118415	958.367370616062	358.488641165619	521.696833447326	991.237338484127	510.863370162046	685.922300587808	1437.493166138729	354.103442693530	781.413642533985	1362.465051543469	517.414183051914	683.229065224010	1423.070222539975	690.594402022975	675.895190057732	1489.794537009340	508.119452748817	752.303179214039	937.642726451217	632.079488910808	818.279305970796	748.542050775980	599.739427082672	751.890451655323	631.850037846639	658.890895945785	834.160653956670	588.046066509593	577.407773053592	845.794353652633	497.408450938967	583.155014465161	784.084844970822	736.338207484859	387.314509894445	700.031242769553	620.115919886584	323.310027685299	782.315561573920	537.339309553714	387.410575837749	774.664126853443	450.875347938541	386.543473250591	707.216067627611	391.216824387940	379.330170583156	571.042369785750	342.862235444191	324.198440539202	555.526764920330	218.023749678971	386.618484939699	818.835950786673	406.605639825676	591.673444574868	750.580662261200	301.740208954068	654.159399193719	794.370821110693	207.887602377833	592.856039149605	662.505199537912	42.378998593956	562.905198250989	831.923217562158	98.914078171133	602.806533387514	744.101016688641	36.415167776420	639.897721873442	951.614048023780	47.989487714676	633.161331572324	363.968173835183	144.470676540209	416.047216699723	429.791563171930	102.308707902320	341.739609520990	530.623801773221	120.376176110961	368.409179218314	618.588445531511	32.191178527911	351.757452099449	656.470831195495	1091.037073654045	218.205553441144	844.474658210928	911.275102359562	241.440823707694	632.476143083249	1073.733219985032	789.096758724373	737.209004186833	835.468887143669	810.826718402388	
